<svg width="55" height="59" viewBox="0 0 55 59" fill="none" xmlns="http://www.w3.org/2000/svg">
<path d="M27.1374 58.9648C25.8936 58.9627 24.67 58.6499 23.5775 58.0549L2.61256 46.6205C1.82609 46.1934 1.16941 45.5618 0.711824 44.7924C0.254233 44.023 0.0126953 43.1442 0.0126953 42.2488C0.0126953 41.3535 0.254233 40.4747 0.711824 39.7053C1.16941 38.9358 1.82609 38.3042 2.61256 37.8772L6.00423 36.0249L2.61256 34.1855C1.82609 33.7584 1.16941 33.1268 0.711824 32.3574C0.254233 31.588 0.0126953 30.7092 0.0126953 29.8138C0.0126953 28.9185 0.254233 28.0397 0.711824 27.2703C1.16941 26.5008 1.82609 25.8692 2.61256 25.4422L6.00423 23.6028L2.61256 21.7538C1.82609 21.3267 1.16941 20.6951 0.711824 19.9256C0.254233 19.1562 0.0126953 18.2774 0.0126953 17.3821C0.0126953 16.4867 0.254233 15.6079 0.711824 14.8385C1.16941 14.0691 1.82609 13.4375 2.61256 13.0104L23.5678 1.58898C24.6629 0.989787 25.8909 0.675751 27.1391 0.675751C28.3872 0.675751 29.6153 0.989787 30.7104 1.58898L51.6623 13.0233C52.4488 13.4504 53.1055 14.082 53.5631 14.8515C54.0207 15.6209 54.2622 16.4997 54.2622 17.395C54.2622 18.2904 54.0207 19.1692 53.5631 19.9386C53.1055 20.708 52.4488 21.3396 51.6623 21.7667L48.2739 23.6158L51.6623 25.4681C52.4488 25.8951 53.1055 26.5267 53.5631 27.2962C54.0207 28.0656 54.2622 28.9444 54.2622 29.8397C54.2622 30.7351 54.0207 31.6139 53.5631 32.3833C53.1055 33.1528 52.4488 33.7843 51.6623 34.2114L48.2739 36.0605L51.6623 37.9128C52.4488 38.3399 53.1055 38.9714 53.5631 39.7409C54.0207 40.5103 54.2622 41.3891 54.2622 42.2845C54.2622 43.1798 54.0207 44.0586 53.5631 44.828C53.1055 45.5975 52.4488 46.229 51.6623 46.6561L30.7071 58.0517C29.6119 58.6489 28.3848 58.9628 27.1374 58.9648ZM11.1921 38.8681L4.99126 42.2521L25.9465 53.6897C26.3113 53.8889 26.7202 53.9934 27.1358 53.9934C27.5514 53.9934 27.9604 53.8889 28.3252 53.6897L49.2836 42.2521L43.0667 38.8681L30.7071 45.6231C29.612 46.2223 28.3839 46.5363 27.1358 46.5363C25.8877 46.5363 24.6596 46.2223 23.5645 45.6231L11.1921 38.8681ZM11.1921 26.4395L4.99126 29.8203L25.9465 41.2579C26.3113 41.4572 26.7202 41.5616 27.1358 41.5616C27.5514 41.5616 27.9604 41.4572 28.3252 41.2579L49.2836 29.8203L43.0667 26.4363L30.7071 33.1881C29.612 33.7873 28.3839 34.1013 27.1358 34.1013C25.8877 34.1013 24.6596 33.7873 23.5645 33.1881L11.1921 26.4395ZM27.1374 5.64978C26.7213 5.65028 26.3119 5.75493 25.9465 5.95418L4.99126 17.3885L25.9465 28.8262C26.3113 29.0254 26.7202 29.1298 27.1358 29.1298C27.5514 29.1298 27.9604 29.0254 28.3252 28.8262L49.2836 17.3885L28.3252 5.95094C27.9609 5.75169 27.5526 5.64704 27.1374 5.64654V5.64978Z" fill="black"/>
</svg>
